<svg xmlns="http://www.w3.org/2000/svg" width="500" height="500" viewBox="0 0 500 500" version="1.1"><path d="M 253.867 118.750 C 254.383 119.713, 259.865 128.825, 266.049 139 C 272.234 149.175, 279.194 160.650, 281.516 164.500 C 283.838 168.350, 289.473 177.575, 294.038 185 C 298.603 192.425, 304.898 202.775, 308.027 208 C 311.155 213.225, 318.800 225.825, 325.015 236 C 331.230 246.175, 341.233 262.600, 347.244 272.500 C 353.254 282.400, 361.513 295.900, 365.597 302.500 C 369.681 309.100, 374.150 316.637, 375.528 319.250 L 378.034 324 314.267 324.118 C 279.195 324.184, 250.107 324.165, 249.627 324.078 C 248.074 323.794, 249.586 326.428, 275.173 368.567 L 300.402 410.117 399.701 409.932 C 454.315 409.830, 499 409.373, 499 408.915 C 499 408.458, 495.106 401.653, 490.346 393.792 C 485.586 385.931, 446.742 321.900, 404.026 251.500 C 361.309 181.100, 325.507 122.037, 324.464 120.250 L 322.569 117 287.749 117 C 254.897 117, 252.983 117.099, 253.867 118.750" stroke="none" fill="#8b2cfb" fill-rule="evenodd"/><path d="M 13.655 31.745 C 3.160 32.003, 0.908 32.317, 1.345 33.458 C 1.834 34.732, 22.510 68.782, 139.362 260.750 L 178.471 325 213.035 325 C 239.349 325, 247.901 325.298, 248.859 326.250 C 249.869 327.252, 249.983 327.145, 249.437 325.709 C 249.062 324.724, 249.147 323.990, 249.627 324.078 C 250.107 324.165, 279.195 324.184, 314.267 324.118 L 378.034 324 375.528 319.250 C 374.150 316.637, 369.681 309.100, 365.597 302.500 C 361.513 295.900, 353.254 282.400, 347.244 272.500 C 341.233 262.600, 331.230 246.175, 325.015 236 C 318.800 225.825, 311.155 213.225, 308.027 208 C 304.898 202.775, 298.603 192.425, 294.038 185 C 289.473 177.575, 283.836 168.350, 281.512 164.500 C 279.188 160.650, 271.827 148.500, 265.154 137.500 L 253.020 117.500 288.260 116.981 L 323.500 116.461 288 116.215 L 252.500 115.969 226.836 73.735 L 201.173 31.500 113.836 31.465 C 65.801 31.445, 20.720 31.571, 13.655 31.745 M 299.859 410.260 C 300.277 410.678, 322.418 410.902, 349.060 410.759 L 397.500 410.499 348.300 410 C 321.239 409.725, 299.441 409.842, 299.859 410.260 M 487.728 409.722 C 489.503 409.943, 492.653 409.946, 494.728 409.730 C 496.802 409.513, 495.350 409.333, 491.500 409.328 C 487.650 409.324, 485.952 409.501, 487.728 409.722" stroke="none" fill="#798dfb" fill-rule="evenodd"/></svg>